<svg xmlns="http://www.w3.org/2000/svg" width="760" height="150" viewBox="0 0 760 150" shape-rendering="crispEdges" role="img" aria-label="Sai Anirudh Siddi, Las Vegas NV, AI engineer"><rect width="760" height="150" fill="#14110E"/><rect x="0.5" y="0.5" width="759" height="149" fill="none" stroke="#3D3428" shape-rendering="auto"/><rect x="0" y="0" width="8" height="4" fill="#2A241C"/><rect x="8" y="0" width="8" height="4" fill="#3D3428"/><rect x="16" y="0" width="8" height="4" fill="#2A241C"/><rect x="24" y="0" width="8" height="4" fill="#3D3428"/><rect x="32" y="0" width="8" height="4" fill="#2A241C"/><rect x="40" y="0" width="8" height="4" fill="#3D3428"/><rect x="48" y="0" width="8" height="4" fill="#2A241C"/><rect x="56" y="0" width="8" height="4" fill="#3D3428"/><rect x="64" y="0" width="8" height="4" fill="#2A241C"/><rect x="72" y="0" width="8" height="4" fill="#3D3428"/><rect x="80" y="0" width="8" height="4" fill="#2A241C"/><rect x="88" y="0" width="8" height="4" fill="#3D3428"/><rect x="96" y="0" width="8" height="4" fill="#2A241C"/><rect x="104" y="0" width="8" height="4" fill="#3D3428"/><rect x="112" y="0" width="8" height="4" fill="#2A241C"/><rect x="120" y="0" width="8" height="4" fill="#3D3428"/><rect x="128" y="0" width="8" height="4" fill="#2A241C"/><rect x="136" y="0" width="8" height="4" fill="#3D3428"/><rect x="144" y="0" width="8" height="4" fill="#2A241C"/><rect x="152" y="0" width="8" height="4" fill="#3D3428"/><rect x="160" y="0" width="8" height="4" fill="#2A241C"/><rect x="168" y="0" width="8" height="4" fill="#3D3428"/><rect x="176" y="0" width="8" height="4" fill="#2A241C"/><rect x="184" y="0" width="8" height="4" fill="#3D3428"/><rect x="192" y="0" width="8" height="4" fill="#2A241C"/><rect x="200" y="0" width="8" height="4" fill="#3D3428"/><rect x="208" y="0" width="8" height="4" fill="#2A241C"/><rect x="216" y="0" width="8" height="4" fill="#3D3428"/><rect x="224" y="0" width="8" height="4" fill="#2A241C"/><rect x="232" y="0" width="8" height="4" fill="#3D3428"/><rect x="240" y="0" width="8" height="4" fill="#2A241C"/><rect x="248" y="0" width="8" height="4" fill="#3D3428"/><rect x="256" y="0" width="8" height="4" fill="#2A241C"/><rect x="264" y="0" width="8" height="4" fill="#3D3428"/><rect x="272" y="0" width="8" height="4" fill="#2A241C"/><rect x="280" y="0" width="8" height="4" fill="#3D3428"/><rect x="288" y="0" width="8" height="4" fill="#2A241C"/><rect x="296" y="0" width="8" height="4" fill="#3D3428"/><rect x="304" y="0" width="8" height="4" fill="#2A241C"/><rect x="312" y="0" width="8" height="4" fill="#3D3428"/><rect x="320" y="0" width="8" height="4" fill="#2A241C"/><rect x="328" y="0" width="8" height="4" fill="#3D3428"/><rect x="336" y="0" width="8" height="4" fill="#2A241C"/><rect x="344" y="0" width="8" height="4" fill="#3D3428"/><rect x="352" y="0" width="8" height="4" fill="#2A241C"/><rect x="360" y="0" width="8" height="4" fill="#3D3428"/><rect x="368" y="0" width="8" height="4" fill="#2A241C"/><rect x="376" y="0" width="8" height="4" fill="#3D3428"/><rect x="384" y="0" width="8" height="4" fill="#2A241C"/><rect x="392" y="0" width="8" height="4" fill="#3D3428"/><rect x="400" y="0" width="8" height="4" fill="#2A241C"/><rect x="408" y="0" width="8" height="4" fill="#3D3428"/><rect x="416" y="0" width="8" height="4" fill="#2A241C"/><rect x="424" y="0" width="8" height="4" fill="#3D3428"/><rect x="432" y="0" width="8" height="4" fill="#2A241C"/><rect x="440" y="0" width="8" height="4" fill="#3D3428"/><rect x="448" y="0" width="8" height="4" fill="#2A241C"/><rect x="456" y="0" width="8" height="4" fill="#3D3428"/><rect x="464" y="0" width="8" height="4" fill="#2A241C"/><rect x="472" y="0" width="8" height="4" fill="#3D3428"/><rect x="480" y="0" width="8" height="4" fill="#2A241C"/><rect x="488" y="0" width="8" height="4" fill="#3D3428"/><rect x="496" y="0" width="8" height="4" fill="#2A241C"/><rect x="504" y="0" width="8" height="4" fill="#3D3428"/><rect x="512" y="0" width="8" height="4" fill="#2A241C"/><rect x="520" y="0" width="8" height="4" fill="#3D3428"/><rect x="528" y="0" width="8" height="4" fill="#2A241C"/><rect x="536" y="0" width="8" height="4" fill="#3D3428"/><rect x="544" y="0" width="8" height="4" fill="#2A241C"/><rect x="552" y="0" width="8" height="4" fill="#3D3428"/><rect x="560" y="0" width="8" height="4" fill="#2A241C"/><rect x="568" y="0" width="8" height="4" fill="#3D3428"/><rect x="576" y="0" width="8" height="4" fill="#2A241C"/><rect x="584" y="0" width="8" height="4" fill="#3D3428"/><rect x="592" y="0" width="8" height="4" fill="#2A241C"/><rect x="600" y="0" width="8" height="4" fill="#3D3428"/><rect x="608" y="0" width="8" height="4" fill="#2A241C"/><rect x="616" y="0" width="8" height="4" fill="#3D3428"/><rect x="624" y="0" width="8" height="4" fill="#2A241C"/><rect x="632" y="0" width="8" height="4" fill="#3D3428"/><rect x="640" y="0" width="8" height="4" fill="#2A241C"/><rect x="648" y="0" width="8" height="4" fill="#3D3428"/><rect x="656" y="0" width="8" height="4" fill="#2A241C"/><rect x="664" y="0" width="8" height="4" fill="#3D3428"/><rect x="672" y="0" width="8" height="4" fill="#2A241C"/><rect x="680" y="0" width="8" height="4" fill="#3D3428"/><rect x="688" y="0" width="8" height="4" fill="#2A241C"/><rect x="696" y="0" width="8" height="4" fill="#3D3428"/><rect x="704" y="0" width="8" height="4" fill="#2A241C"/><rect x="712" y="0" width="8" height="4" fill="#3D3428"/><rect x="720" y="0" width="8" height="4" fill="#2A241C"/><rect x="728" y="0" width="8" height="4" fill="#3D3428"/><rect x="736" y="0" width="8" height="4" fill="#2A241C"/><rect x="744" y="0" width="8" height="4" fill="#3D3428"/><rect x="752" y="0" width="8" height="4" fill="#2A241C"/><clipPath id="reveal"><rect x="127" y="0" height="150" width="0"><animate attributeName="width" calcMode="discrete" dur="1.83s" fill="freeze" keyTimes="0;0.2131;0.2623;0.3115;0.3607;0.4098;0.4590;0.5082;0.5574;0.6066;0.6557;0.7049;0.7541;0.8033;0.8525;0.9016;0.9508;1.0000" values="0;30;60;90;120;150;180;210;240;270;300;330;360;390;420;450;480;510"/></rect></clipPath><g clip-path="url(#reveal)"><g fill="#E8B44A"><rect x="132" y="42" width="20" height="5"/><rect x="127" y="47" width="5" height="5"/><rect x="127" y="52" width="5" height="5"/><rect x="132" y="57" width="15" height="5"/><rect x="147" y="62" width="5" height="5"/><rect x="147" y="67" width="5" height="5"/><rect x="127" y="72" width="20" height="5"/><rect x="162" y="42" width="15" height="5"/><rect x="157" y="47" width="5" height="5"/><rect x="177" y="47" width="5" height="5"/><rect x="157" y="52" width="5" height="5"/><rect x="177" y="52" width="5" height="5"/><rect x="157" y="57" width="25" height="5"/><rect x="157" y="62" width="5" height="5"/><rect x="177" y="62" width="5" height="5"/><rect x="157" y="67" width="5" height="5"/><rect x="177" y="67" width="5" height="5"/><rect x="157" y="72" width="5" height="5"/><rect x="177" y="72" width="5" height="5"/><rect x="192" y="42" width="15" height="5"/><rect x="197" y="47" width="5" height="5"/><rect x="197" y="52" width="5" height="5"/><rect x="197" y="57" width="5" height="5"/><rect x="197" y="62" width="5" height="5"/><rect x="197" y="67" width="5" height="5"/><rect x="192" y="72" width="15" height="5"/><rect x="252" y="42" width="15" height="5"/><rect x="247" y="47" width="5" height="5"/><rect x="267" y="47" width="5" height="5"/><rect x="247" y="52" width="5" height="5"/><rect x="267" y="52" width="5" height="5"/><rect x="247" y="57" width="25" height="5"/><rect x="247" y="62" width="5" height="5"/><rect x="267" y="62" width="5" height="5"/><rect x="247" y="67" width="5" height="5"/><rect x="267" y="67" width="5" height="5"/><rect x="247" y="72" width="5" height="5"/><rect x="267" y="72" width="5" height="5"/><rect x="277" y="42" width="5" height="5"/><rect x="297" y="42" width="5" height="5"/><rect x="277" y="47" width="5" height="5"/><rect x="297" y="47" width="5" height="5"/><rect x="277" y="52" width="10" height="5"/><rect x="297" y="52" width="5" height="5"/><rect x="277" y="57" width="5" height="5"/><rect x="287" y="57" width="5" height="5"/><rect x="297" y="57" width="5" height="5"/><rect x="277" y="62" width="5" height="5"/><rect x="292" y="62" width="10" height="5"/><rect x="277" y="67" width="5" height="5"/><rect x="297" y="67" width="5" height="5"/><rect x="277" y="72" width="5" height="5"/><rect x="297" y="72" width="5" height="5"/><rect x="312" y="42" width="15" height="5"/><rect x="317" y="47" width="5" height="5"/><rect x="317" y="52" width="5" height="5"/><rect x="317" y="57" width="5" height="5"/><rect x="317" y="62" width="5" height="5"/><rect x="317" y="67" width="5" height="5"/><rect x="312" y="72" width="15" height="5"/><rect x="337" y="42" width="20" height="5"/><rect x="337" y="47" width="5" height="5"/><rect x="357" y="47" width="5" height="5"/><rect x="337" y="52" width="5" height="5"/><rect x="357" y="52" width="5" height="5"/><rect x="337" y="57" width="20" height="5"/><rect x="337" y="62" width="5" height="5"/><rect x="347" y="62" width="5" height="5"/><rect x="337" y="67" width="5" height="5"/><rect x="352" y="67" width="5" height="5"/><rect x="337" y="72" width="5" height="5"/><rect x="357" y="72" width="5" height="5"/><rect x="367" y="42" width="5" height="5"/><rect x="387" y="42" width="5" height="5"/><rect x="367" y="47" width="5" height="5"/><rect x="387" y="47" width="5" height="5"/><rect x="367" y="52" width="5" height="5"/><rect x="387" y="52" width="5" height="5"/><rect x="367" y="57" width="5" height="5"/><rect x="387" y="57" width="5" height="5"/><rect x="367" y="62" width="5" height="5"/><rect x="387" y="62" width="5" height="5"/><rect x="367" y="67" width="5" height="5"/><rect x="387" y="67" width="5" height="5"/><rect x="372" y="72" width="15" height="5"/><rect x="397" y="42" width="20" height="5"/><rect x="397" y="47" width="5" height="5"/><rect x="417" y="47" width="5" height="5"/><rect x="397" y="52" width="5" height="5"/><rect x="417" y="52" width="5" height="5"/><rect x="397" y="57" width="5" height="5"/><rect x="417" y="57" width="5" height="5"/><rect x="397" y="62" width="5" height="5"/><rect x="417" y="62" width="5" height="5"/><rect x="397" y="67" width="5" height="5"/><rect x="417" y="67" width="5" height="5"/><rect x="397" y="72" width="20" height="5"/><rect x="427" y="42" width="5" height="5"/><rect x="447" y="42" width="5" height="5"/><rect x="427" y="47" width="5" height="5"/><rect x="447" y="47" width="5" height="5"/><rect x="427" y="52" width="5" height="5"/><rect x="447" y="52" width="5" height="5"/><rect x="427" y="57" width="25" height="5"/><rect x="427" y="62" width="5" height="5"/><rect x="447" y="62" width="5" height="5"/><rect x="427" y="67" width="5" height="5"/><rect x="447" y="67" width="5" height="5"/><rect x="427" y="72" width="5" height="5"/><rect x="447" y="72" width="5" height="5"/><rect x="492" y="42" width="20" height="5"/><rect x="487" y="47" width="5" height="5"/><rect x="487" y="52" width="5" height="5"/><rect x="492" y="57" width="15" height="5"/><rect x="507" y="62" width="5" height="5"/><rect x="507" y="67" width="5" height="5"/><rect x="487" y="72" width="20" height="5"/><rect x="522" y="42" width="15" height="5"/><rect x="527" y="47" width="5" height="5"/><rect x="527" y="52" width="5" height="5"/><rect x="527" y="57" width="5" height="5"/><rect x="527" y="62" width="5" height="5"/><rect x="527" y="67" width="5" height="5"/><rect x="522" y="72" width="15" height="5"/><rect x="547" y="42" width="20" height="5"/><rect x="547" y="47" width="5" height="5"/><rect x="567" y="47" width="5" height="5"/><rect x="547" y="52" width="5" height="5"/><rect x="567" y="52" width="5" height="5"/><rect x="547" y="57" width="5" height="5"/><rect x="567" y="57" width="5" height="5"/><rect x="547" y="62" width="5" height="5"/><rect x="567" y="62" width="5" height="5"/><rect x="547" y="67" width="5" height="5"/><rect x="567" y="67" width="5" height="5"/><rect x="547" y="72" width="20" height="5"/><rect x="577" y="42" width="20" height="5"/><rect x="577" y="47" width="5" height="5"/><rect x="597" y="47" width="5" height="5"/><rect x="577" y="52" width="5" height="5"/><rect x="597" y="52" width="5" height="5"/><rect x="577" y="57" width="5" height="5"/><rect x="597" y="57" width="5" height="5"/><rect x="577" y="62" width="5" height="5"/><rect x="597" y="62" width="5" height="5"/><rect x="577" y="67" width="5" height="5"/><rect x="597" y="67" width="5" height="5"/><rect x="577" y="72" width="20" height="5"/><rect x="612" y="42" width="15" height="5"/><rect x="617" y="47" width="5" height="5"/><rect x="617" y="52" width="5" height="5"/><rect x="617" y="57" width="5" height="5"/><rect x="617" y="62" width="5" height="5"/><rect x="617" y="67" width="5" height="5"/><rect x="612" y="72" width="15" height="5"/></g></g><rect x="642" y="42" width="20" height="35" fill="#E8B44A"><animate attributeName="opacity" values="1;0" calcMode="discrete" dur="1s" begin="1.83s" repeatCount="indefinite"/></rect><g opacity="0"><g fill="#8C7A5E"><rect x="87" y="104" width="2" height="2"/><rect x="87" y="106" width="2" height="2"/><rect x="87" y="108" width="2" height="2"/><rect x="87" y="110" width="2" height="2"/><rect x="87" y="112" width="2" height="2"/><rect x="87" y="114" width="2" height="2"/><rect x="87" y="116" width="10" height="2"/><rect x="101" y="104" width="6" height="2"/><rect x="99" y="106" width="2" height="2"/><rect x="107" y="106" width="2" height="2"/><rect x="99" y="108" width="2" height="2"/><rect x="107" y="108" width="2" height="2"/><rect x="99" y="110" width="10" height="2"/><rect x="99" y="112" width="2" height="2"/><rect x="107" y="112" width="2" height="2"/><rect x="99" y="114" width="2" height="2"/><rect x="107" y="114" width="2" height="2"/><rect x="99" y="116" width="2" height="2"/><rect x="107" y="116" width="2" height="2"/><rect x="113" y="104" width="8" height="2"/><rect x="111" y="106" width="2" height="2"/><rect x="111" y="108" width="2" height="2"/><rect x="113" y="110" width="6" height="2"/><rect x="119" y="112" width="2" height="2"/><rect x="119" y="114" width="2" height="2"/><rect x="111" y="116" width="8" height="2"/><rect x="135" y="104" width="2" height="2"/><rect x="143" y="104" width="2" height="2"/><rect x="135" y="106" width="2" height="2"/><rect x="143" y="106" width="2" height="2"/><rect x="135" y="108" width="2" height="2"/><rect x="143" y="108" width="2" height="2"/><rect x="135" y="110" width="2" height="2"/><rect x="143" y="110" width="2" height="2"/><rect x="135" y="112" width="2" height="2"/><rect x="143" y="112" width="2" height="2"/><rect x="137" y="114" width="2" height="2"/><rect x="141" y="114" width="2" height="2"/><rect x="139" y="116" width="2" height="2"/><rect x="147" y="104" width="10" height="2"/><rect x="147" y="106" width="2" height="2"/><rect x="147" y="108" width="2" height="2"/><rect x="147" y="110" width="8" height="2"/><rect x="147" y="112" width="2" height="2"/><rect x="147" y="114" width="2" height="2"/><rect x="147" y="116" width="10" height="2"/><rect x="161" y="104" width="6" height="2"/><rect x="159" y="106" width="2" height="2"/><rect x="167" y="106" width="2" height="2"/><rect x="159" y="108" width="2" height="2"/><rect x="159" y="110" width="2" height="2"/><rect x="163" y="110" width="6" height="2"/><rect x="159" y="112" width="2" height="2"/><rect x="167" y="112" width="2" height="2"/><rect x="159" y="114" width="2" height="2"/><rect x="167" y="114" width="2" height="2"/><rect x="161" y="116" width="8" height="2"/><rect x="173" y="104" width="6" height="2"/><rect x="171" y="106" width="2" height="2"/><rect x="179" y="106" width="2" height="2"/><rect x="171" y="108" width="2" height="2"/><rect x="179" y="108" width="2" height="2"/><rect x="171" y="110" width="10" height="2"/><rect x="171" y="112" width="2" height="2"/><rect x="179" y="112" width="2" height="2"/><rect x="171" y="114" width="2" height="2"/><rect x="179" y="114" width="2" height="2"/><rect x="171" y="116" width="2" height="2"/><rect x="179" y="116" width="2" height="2"/><rect x="185" y="104" width="8" height="2"/><rect x="183" y="106" width="2" height="2"/><rect x="183" y="108" width="2" height="2"/><rect x="185" y="110" width="6" height="2"/><rect x="191" y="112" width="2" height="2"/><rect x="191" y="114" width="2" height="2"/><rect x="183" y="116" width="8" height="2"/><rect x="199" y="112" width="2" height="2"/><rect x="199" y="114" width="2" height="2"/><rect x="197" y="116" width="2" height="2"/><rect x="219" y="104" width="2" height="2"/><rect x="227" y="104" width="2" height="2"/><rect x="219" y="106" width="2" height="2"/><rect x="227" y="106" width="2" height="2"/><rect x="219" y="108" width="4" height="2"/><rect x="227" y="108" width="2" height="2"/><rect x="219" y="110" width="2" height="2"/><rect x="223" y="110" width="2" height="2"/><rect x="227" y="110" width="2" height="2"/><rect x="219" y="112" width="2" height="2"/><rect x="225" y="112" width="4" height="2"/><rect x="219" y="114" width="2" height="2"/><rect x="227" y="114" width="2" height="2"/><rect x="219" y="116" width="2" height="2"/><rect x="227" y="116" width="2" height="2"/><rect x="231" y="104" width="2" height="2"/><rect x="239" y="104" width="2" height="2"/><rect x="231" y="106" width="2" height="2"/><rect x="239" y="106" width="2" height="2"/><rect x="231" y="108" width="2" height="2"/><rect x="239" y="108" width="2" height="2"/><rect x="231" y="110" width="2" height="2"/><rect x="239" y="110" width="2" height="2"/><rect x="231" y="112" width="2" height="2"/><rect x="239" y="112" width="2" height="2"/><rect x="233" y="114" width="2" height="2"/><rect x="237" y="114" width="2" height="2"/><rect x="235" y="116" width="2" height="2"/><rect x="271" y="108" width="2" height="2"/><rect x="269" y="110" width="6" height="2"/><rect x="271" y="112" width="2" height="2"/><rect x="305" y="104" width="6" height="2"/><rect x="303" y="106" width="2" height="2"/><rect x="311" y="106" width="2" height="2"/><rect x="303" y="108" width="2" height="2"/><rect x="311" y="108" width="2" height="2"/><rect x="303" y="110" width="10" height="2"/><rect x="303" y="112" width="2" height="2"/><rect x="311" y="112" width="2" height="2"/><rect x="303" y="114" width="2" height="2"/><rect x="311" y="114" width="2" height="2"/><rect x="303" y="116" width="2" height="2"/><rect x="311" y="116" width="2" height="2"/><rect x="317" y="104" width="6" height="2"/><rect x="319" y="106" width="2" height="2"/><rect x="319" y="108" width="2" height="2"/><rect x="319" y="110" width="2" height="2"/><rect x="319" y="112" width="2" height="2"/><rect x="319" y="114" width="2" height="2"/><rect x="317" y="116" width="6" height="2"/><rect x="339" y="104" width="10" height="2"/><rect x="339" y="106" width="2" height="2"/><rect x="339" y="108" width="2" height="2"/><rect x="339" y="110" width="8" height="2"/><rect x="339" y="112" width="2" height="2"/><rect x="339" y="114" width="2" height="2"/><rect x="339" y="116" width="10" height="2"/><rect x="351" y="104" width="2" height="2"/><rect x="359" y="104" width="2" height="2"/><rect x="351" y="106" width="2" height="2"/><rect x="359" y="106" width="2" height="2"/><rect x="351" y="108" width="4" height="2"/><rect x="359" y="108" width="2" height="2"/><rect x="351" y="110" width="2" height="2"/><rect x="355" y="110" width="2" height="2"/><rect x="359" y="110" width="2" height="2"/><rect x="351" y="112" width="2" height="2"/><rect x="357" y="112" width="4" height="2"/><rect x="351" y="114" width="2" height="2"/><rect x="359" y="114" width="2" height="2"/><rect x="351" y="116" width="2" height="2"/><rect x="359" y="116" width="2" height="2"/><rect x="365" y="104" width="6" height="2"/><rect x="363" y="106" width="2" height="2"/><rect x="371" y="106" width="2" height="2"/><rect x="363" y="108" width="2" height="2"/><rect x="363" y="110" width="2" height="2"/><rect x="367" y="110" width="6" height="2"/><rect x="363" y="112" width="2" height="2"/><rect x="371" y="112" width="2" height="2"/><rect x="363" y="114" width="2" height="2"/><rect x="371" y="114" width="2" height="2"/><rect x="365" y="116" width="8" height="2"/><rect x="377" y="104" width="6" height="2"/><rect x="379" y="106" width="2" height="2"/><rect x="379" y="108" width="2" height="2"/><rect x="379" y="110" width="2" height="2"/><rect x="379" y="112" width="2" height="2"/><rect x="379" y="114" width="2" height="2"/><rect x="377" y="116" width="6" height="2"/><rect x="387" y="104" width="2" height="2"/><rect x="395" y="104" width="2" height="2"/><rect x="387" y="106" width="2" height="2"/><rect x="395" y="106" width="2" height="2"/><rect x="387" y="108" width="4" height="2"/><rect x="395" y="108" width="2" height="2"/><rect x="387" y="110" width="2" height="2"/><rect x="391" y="110" width="2" height="2"/><rect x="395" y="110" width="2" height="2"/><rect x="387" y="112" width="2" height="2"/><rect x="393" y="112" width="4" height="2"/><rect x="387" y="114" width="2" height="2"/><rect x="395" y="114" width="2" height="2"/><rect x="387" y="116" width="2" height="2"/><rect x="395" y="116" width="2" height="2"/><rect x="399" y="104" width="10" height="2"/><rect x="399" y="106" width="2" height="2"/><rect x="399" y="108" width="2" height="2"/><rect x="399" y="110" width="8" height="2"/><rect x="399" y="112" width="2" height="2"/><rect x="399" y="114" width="2" height="2"/><rect x="399" y="116" width="10" height="2"/><rect x="411" y="104" width="10" height="2"/><rect x="411" y="106" width="2" height="2"/><rect x="411" y="108" width="2" height="2"/><rect x="411" y="110" width="8" height="2"/><rect x="411" y="112" width="2" height="2"/><rect x="411" y="114" width="2" height="2"/><rect x="411" y="116" width="10" height="2"/><rect x="423" y="104" width="8" height="2"/><rect x="423" y="106" width="2" height="2"/><rect x="431" y="106" width="2" height="2"/><rect x="423" y="108" width="2" height="2"/><rect x="431" y="108" width="2" height="2"/><rect x="423" y="110" width="8" height="2"/><rect x="423" y="112" width="2" height="2"/><rect x="427" y="112" width="2" height="2"/><rect x="423" y="114" width="2" height="2"/><rect x="429" y="114" width="2" height="2"/><rect x="423" y="116" width="2" height="2"/><rect x="431" y="116" width="2" height="2"/><rect x="463" y="108" width="2" height="2"/><rect x="461" y="110" width="6" height="2"/><rect x="463" y="112" width="2" height="2"/><rect x="495" y="104" width="8" height="2"/><rect x="495" y="106" width="2" height="2"/><rect x="503" y="106" width="2" height="2"/><rect x="495" y="108" width="2" height="2"/><rect x="503" y="108" width="2" height="2"/><rect x="495" y="110" width="8" height="2"/><rect x="495" y="112" width="2" height="2"/><rect x="495" y="114" width="2" height="2"/><rect x="495" y="116" width="2" height="2"/><rect x="507" y="104" width="8" height="2"/><rect x="507" y="106" width="2" height="2"/><rect x="515" y="106" width="2" height="2"/><rect x="507" y="108" width="2" height="2"/><rect x="515" y="108" width="2" height="2"/><rect x="507" y="110" width="8" height="2"/><rect x="507" y="112" width="2" height="2"/><rect x="511" y="112" width="2" height="2"/><rect x="507" y="114" width="2" height="2"/><rect x="513" y="114" width="2" height="2"/><rect x="507" y="116" width="2" height="2"/><rect x="515" y="116" width="2" height="2"/><rect x="521" y="104" width="6" height="2"/><rect x="519" y="106" width="2" height="2"/><rect x="527" y="106" width="2" height="2"/><rect x="519" y="108" width="2" height="2"/><rect x="527" y="108" width="2" height="2"/><rect x="519" y="110" width="2" height="2"/><rect x="527" y="110" width="2" height="2"/><rect x="519" y="112" width="2" height="2"/><rect x="527" y="112" width="2" height="2"/><rect x="519" y="114" width="2" height="2"/><rect x="527" y="114" width="2" height="2"/><rect x="521" y="116" width="6" height="2"/><rect x="531" y="104" width="8" height="2"/><rect x="531" y="106" width="2" height="2"/><rect x="539" y="106" width="2" height="2"/><rect x="531" y="108" width="2" height="2"/><rect x="539" y="108" width="2" height="2"/><rect x="531" y="110" width="2" height="2"/><rect x="539" y="110" width="2" height="2"/><rect x="531" y="112" width="2" height="2"/><rect x="539" y="112" width="2" height="2"/><rect x="531" y="114" width="2" height="2"/><rect x="539" y="114" width="2" height="2"/><rect x="531" y="116" width="8" height="2"/><rect x="543" y="104" width="2" height="2"/><rect x="551" y="104" width="2" height="2"/><rect x="543" y="106" width="2" height="2"/><rect x="551" y="106" width="2" height="2"/><rect x="543" y="108" width="2" height="2"/><rect x="551" y="108" width="2" height="2"/><rect x="543" y="110" width="2" height="2"/><rect x="551" y="110" width="2" height="2"/><rect x="543" y="112" width="2" height="2"/><rect x="551" y="112" width="2" height="2"/><rect x="543" y="114" width="2" height="2"/><rect x="551" y="114" width="2" height="2"/><rect x="545" y="116" width="6" height="2"/><rect x="557" y="104" width="6" height="2"/><rect x="555" y="106" width="2" height="2"/><rect x="563" y="106" width="2" height="2"/><rect x="555" y="108" width="2" height="2"/><rect x="555" y="110" width="2" height="2"/><rect x="555" y="112" width="2" height="2"/><rect x="555" y="114" width="2" height="2"/><rect x="563" y="114" width="2" height="2"/><rect x="557" y="116" width="6" height="2"/><rect x="567" y="104" width="10" height="2"/><rect x="571" y="106" width="2" height="2"/><rect x="571" y="108" width="2" height="2"/><rect x="571" y="110" width="2" height="2"/><rect x="571" y="112" width="2" height="2"/><rect x="571" y="114" width="2" height="2"/><rect x="571" y="116" width="2" height="2"/><rect x="591" y="104" width="8" height="2"/><rect x="591" y="106" width="2" height="2"/><rect x="599" y="106" width="2" height="2"/><rect x="591" y="108" width="2" height="2"/><rect x="599" y="108" width="2" height="2"/><rect x="591" y="110" width="8" height="2"/><rect x="591" y="112" width="2" height="2"/><rect x="599" y="112" width="2" height="2"/><rect x="591" y="114" width="2" height="2"/><rect x="599" y="114" width="2" height="2"/><rect x="591" y="116" width="8" height="2"/><rect x="603" y="104" width="2" height="2"/><rect x="611" y="104" width="2" height="2"/><rect x="603" y="106" width="2" height="2"/><rect x="611" y="106" width="2" height="2"/><rect x="603" y="108" width="2" height="2"/><rect x="611" y="108" width="2" height="2"/><rect x="603" y="110" width="2" height="2"/><rect x="611" y="110" width="2" height="2"/><rect x="603" y="112" width="2" height="2"/><rect x="611" y="112" width="2" height="2"/><rect x="603" y="114" width="2" height="2"/><rect x="611" y="114" width="2" height="2"/><rect x="605" y="116" width="6" height="2"/><rect x="617" y="104" width="6" height="2"/><rect x="619" y="106" width="2" height="2"/><rect x="619" y="108" width="2" height="2"/><rect x="619" y="110" width="2" height="2"/><rect x="619" y="112" width="2" height="2"/><rect x="619" y="114" width="2" height="2"/><rect x="617" y="116" width="6" height="2"/><rect x="627" y="104" width="2" height="2"/><rect x="627" y="106" width="2" height="2"/><rect x="627" y="108" width="2" height="2"/><rect x="627" y="110" width="2" height="2"/><rect x="627" y="112" width="2" height="2"/><rect x="627" y="114" width="2" height="2"/><rect x="627" y="116" width="10" height="2"/><rect x="639" y="104" width="8" height="2"/><rect x="639" y="106" width="2" height="2"/><rect x="647" y="106" width="2" height="2"/><rect x="639" y="108" width="2" height="2"/><rect x="647" y="108" width="2" height="2"/><rect x="639" y="110" width="2" height="2"/><rect x="647" y="110" width="2" height="2"/><rect x="639" y="112" width="2" height="2"/><rect x="647" y="112" width="2" height="2"/><rect x="639" y="114" width="2" height="2"/><rect x="647" y="114" width="2" height="2"/><rect x="639" y="116" width="8" height="2"/><rect x="651" y="104" width="10" height="2"/><rect x="651" y="106" width="2" height="2"/><rect x="651" y="108" width="2" height="2"/><rect x="651" y="110" width="8" height="2"/><rect x="651" y="112" width="2" height="2"/><rect x="651" y="114" width="2" height="2"/><rect x="651" y="116" width="10" height="2"/><rect x="663" y="104" width="8" height="2"/><rect x="663" y="106" width="2" height="2"/><rect x="671" y="106" width="2" height="2"/><rect x="663" y="108" width="2" height="2"/><rect x="671" y="108" width="2" height="2"/><rect x="663" y="110" width="8" height="2"/><rect x="663" y="112" width="2" height="2"/><rect x="667" y="112" width="2" height="2"/><rect x="663" y="114" width="2" height="2"/><rect x="669" y="114" width="2" height="2"/><rect x="663" y="116" width="2" height="2"/><rect x="671" y="116" width="2" height="2"/></g><animate attributeName="opacity" from="0" to="1" dur="0.5s" begin="2.03s" fill="freeze"/></g><defs><pattern id="scan" width="1" height="3" patternUnits="userSpaceOnUse"><rect width="1" height="1" fill="#000" opacity="0.28"/></pattern></defs><rect width="760" height="150" fill="url(#scan)"/></svg>
