<svg xmlns="http://www.w3.org/2000/svg" width="760" height="34" viewBox="0 0 760 34" shape-rendering="crispEdges" role="img" aria-label="xp log"><g fill="#E8B44A"><rect x="3" y="6" width="3" height="3"/><rect x="6" y="9" width="3" height="3"/><rect x="9" y="12" width="3" height="3"/><rect x="12" y="15" width="3" height="3"/><rect x="9" y="18" width="3" height="3"/><rect x="6" y="21" width="3" height="3"/><rect x="3" y="24" width="3" height="3"/><rect x="36" y="6" width="3" height="3"/><rect x="48" y="6" width="3" height="3"/><rect x="36" y="9" width="3" height="3"/><rect x="48" y="9" width="3" height="3"/><rect x="39" y="12" width="3" height="3"/><rect x="45" y="12" width="3" height="3"/><rect x="42" y="15" width="3" height="3"/><rect x="39" y="18" width="3" height="3"/><rect x="45" y="18" width="3" height="3"/><rect x="36" y="21" width="3" height="3"/><rect x="48" y="21" width="3" height="3"/><rect x="36" y="24" width="3" height="3"/><rect x="48" y="24" width="3" height="3"/><rect x="54" y="6" width="12" height="3"/><rect x="54" y="9" width="3" height="3"/><rect x="66" y="9" width="3" height="3"/><rect x="54" y="12" width="3" height="3"/><rect x="66" y="12" width="3" height="3"/><rect x="54" y="15" width="12" height="3"/><rect x="54" y="18" width="3" height="3"/><rect x="54" y="21" width="3" height="3"/><rect x="54" y="24" width="3" height="3"/><rect x="90" y="6" width="3" height="3"/><rect x="90" y="9" width="3" height="3"/><rect x="90" y="12" width="3" height="3"/><rect x="90" y="15" width="3" height="3"/><rect x="90" y="18" width="3" height="3"/><rect x="90" y="21" width="3" height="3"/><rect x="90" y="24" width="15" height="3"/><rect x="111" y="6" width="9" height="3"/><rect x="108" y="9" width="3" height="3"/><rect x="120" y="9" width="3" height="3"/><rect x="108" y="12" width="3" height="3"/><rect x="120" y="12" width="3" height="3"/><rect x="108" y="15" width="3" height="3"/><rect x="120" y="15" width="3" height="3"/><rect x="108" y="18" width="3" height="3"/><rect x="120" y="18" width="3" height="3"/><rect x="108" y="21" width="3" height="3"/><rect x="120" y="21" width="3" height="3"/><rect x="111" y="24" width="9" height="3"/><rect x="129" y="6" width="9" height="3"/><rect x="126" y="9" width="3" height="3"/><rect x="138" y="9" width="3" height="3"/><rect x="126" y="12" width="3" height="3"/><rect x="126" y="15" width="3" height="3"/><rect x="132" y="15" width="9" height="3"/><rect x="126" y="18" width="3" height="3"/><rect x="138" y="18" width="3" height="3"/><rect x="126" y="21" width="3" height="3"/><rect x="138" y="21" width="3" height="3"/><rect x="129" y="24" width="12" height="3"/></g><g fill="#3D3428"><rect x="159" y="16" width="3" height="3"/><rect x="168" y="16" width="3" height="3"/><rect x="177" y="16" width="3" height="3"/><rect x="186" y="16" width="3" height="3"/><rect x="195" y="16" width="3" height="3"/><rect x="204" y="16" width="3" height="3"/><rect x="213" y="16" width="3" height="3"/><rect x="222" y="16" width="3" height="3"/><rect x="231" y="16" width="3" height="3"/><rect x="240" y="16" width="3" height="3"/><rect x="249" y="16" width="3" height="3"/><rect x="258" y="16" width="3" height="3"/><rect x="267" y="16" width="3" height="3"/><rect x="276" y="16" width="3" height="3"/><rect x="285" y="16" width="3" height="3"/><rect x="294" y="16" width="3" height="3"/><rect x="303" y="16" width="3" height="3"/><rect x="312" y="16" width="3" height="3"/><rect x="321" y="16" width="3" height="3"/><rect x="330" y="16" width="3" height="3"/><rect x="339" y="16" width="3" height="3"/><rect x="348" y="16" width="3" height="3"/><rect x="357" y="16" width="3" height="3"/><rect x="366" y="16" width="3" height="3"/><rect x="375" y="16" width="3" height="3"/><rect x="384" y="16" width="3" height="3"/><rect x="393" y="16" width="3" height="3"/><rect x="402" y="16" width="3" height="3"/><rect x="411" y="16" width="3" height="3"/><rect x="420" y="16" width="3" height="3"/><rect x="429" y="16" width="3" height="3"/><rect x="438" y="16" width="3" height="3"/><rect x="447" y="16" width="3" height="3"/><rect x="456" y="16" width="3" height="3"/><rect x="465" y="16" width="3" height="3"/><rect x="474" y="16" width="3" height="3"/><rect x="483" y="16" width="3" height="3"/><rect x="492" y="16" width="3" height="3"/><rect x="501" y="16" width="3" height="3"/><rect x="510" y="16" width="3" height="3"/><rect x="519" y="16" width="3" height="3"/><rect x="528" y="16" width="3" height="3"/><rect x="537" y="16" width="3" height="3"/><rect x="546" y="16" width="3" height="3"/><rect x="555" y="16" width="3" height="3"/><rect x="564" y="16" width="3" height="3"/><rect x="573" y="16" width="3" height="3"/><rect x="582" y="16" width="3" height="3"/><rect x="591" y="16" width="3" height="3"/><rect x="600" y="16" width="3" height="3"/><rect x="609" y="16" width="3" height="3"/><rect x="618" y="16" width="3" height="3"/><rect x="627" y="16" width="3" height="3"/><rect x="636" y="16" width="3" height="3"/><rect x="645" y="16" width="3" height="3"/><rect x="654" y="16" width="3" height="3"/><rect x="663" y="16" width="3" height="3"/><rect x="672" y="16" width="3" height="3"/><rect x="681" y="16" width="3" height="3"/><rect x="690" y="16" width="3" height="3"/><rect x="699" y="16" width="3" height="3"/><rect x="708" y="16" width="3" height="3"/><rect x="717" y="16" width="3" height="3"/><rect x="726" y="16" width="3" height="3"/><rect x="735" y="16" width="3" height="3"/><rect x="744" y="16" width="3" height="3"/><rect x="753" y="16" width="3" height="3"/></g></svg>
